# xmcd
#
# Track frame offsets: 
#        150
#        18581
#        41384
#        55998
#        68001
#        86204
#        104225
#        120178
#        130991
#        147307
#
# Disc length: 2105 seconds
#
# Revision: 0
# Processed by: cddbd v1.5.2PL0 Copyright (c) Steve Scherf et al.
# Submitted via: ExactAudioCopyFreeDBPlugin 1.0
#
DISCID=8d08370a
DTITLE=Ditta (Carlo) - What I'm Talking About
DYEAR=2014
DGENRE=Blues
TTITLE0=What I’m Talkin’ About
TTITLE1=Go On Fool
TTITLE2=As The World Turns
TTITLE3=Beating Like A Tom Tom
TTITLE4=Pretty Acres
TTITLE5=Tell It Like It Is
TTITLE6=Try A Little Love
TTITLE7=I’m Leaving You
TTITLE8=Walk That Walk
TTITLE9=Many Rivers To Cross
EXTD=
EXTT0=
EXTT1=
EXTT2=
EXTT3=
EXTT4=
EXTT5=
EXTT6=
EXTT7=
EXTT8=
EXTT9=
PLAYORDER=
